<svg xmlns="http://www.w3.org/2000/svg" viewBox="0 0 30 30"><defs><style>.cls-1{fill:#091336;}.cls-2{fill:#ffd500;fill-rule:evenodd;}</style></defs><g id="Слой_2" data-name="Слой 2"><g id="Слой_1-2" data-name="Слой 1"><rect class="cls-1" width="30" height="30"/><path class="cls-2" d="M15.53,29.34A11.18,11.18,0,0,1,9,27.53a9.39,9.39,0,0,1-3.71-4.91L9.71,20a5.87,5.87,0,0,0,6,4.15,4.87,4.87,0,0,0,3.15-.83A2.61,2.61,0,0,0,18.61,19a19.21,19.21,0,0,0-4.38-1.72,26.17,26.17,0,0,1-3-1.08,11.87,11.87,0,0,1-2.42-1.47A5.94,5.94,0,0,1,7,12.44a8.29,8.29,0,0,1-.61-3.27A7.4,7.4,0,0,1,8.9,3.3a8.83,8.83,0,0,1,6-2.19A9.76,9.76,0,0,1,20.5,2.72a10.62,10.62,0,0,1,3.73,4.49L19.92,9.79a5.21,5.21,0,0,0-5-3.49,3.89,3.89,0,0,0-2.52.77,2.39,2.39,0,0,0-.91,2,2.52,2.52,0,0,0,1,2.07,14.72,14.72,0,0,0,3.93,1.72l1.26.42.55.18c.4.14,1,.36,1.67.66a10.13,10.13,0,0,1,1.64.84A16.14,16.14,0,0,1,22.9,16,5.22,5.22,0,0,1,24,17.33,7.35,7.35,0,0,1,24.71,19,7.87,7.87,0,0,1,25,21.16a7.4,7.4,0,0,1-2.62,6A10.38,10.38,0,0,1,15.53,29.34Z"/></g></g></svg>